<?xml version="1.0" standalone="no"?>
<!DOCTYPE svg PUBLIC "-//W3C//DTD SVG 20010904//EN"
 "http://www.w3.org/TR/2001/REC-SVG-20010904/DTD/svg10.dtd">
<svg version="1.0" xmlns="http://www.w3.org/2000/svg"
 width="140.000000pt" height="140.000000pt" viewBox="0 0 140.000000 140.000000"
 preserveAspectRatio="xMidYMid meet">
<metadata>
Created by potrace 1.14, written by Peter Selinger 2001-2017
</metadata>
<g transform="translate(0.000000,140.000000) scale(0.100000,-0.100000)"
fill="#000000" stroke="none">
<path d="M265 1140 c-126 -20 -219 -136 -199 -248 36 -201 288 -263 419 -103
99 120 21 319 -135 346 -19 3 -36 7 -39 9 -3 1 -24 -1 -46 -4z m114 -59 c79
-37 120 -138 91 -225 -14 -42 -79 -102 -124 -112 -39 -10 -42 -10 -93 -1 -50
8 -115 68 -133 122 -32 97 34 210 137 234 44 10 74 5 122 -18z"/>
<path d="M193 797 c-7 -11 47 -28 97 -29 46 -1 126 19 116 30 -9 8 -207 8
-213 -1z"/>
<path d="M578 1118 c-2 -13 -3 -108 -3 -213 l0 -190 48 -5 c26 -3 51 -3 55 0
5 3 8 47 8 98 -1 52 2 96 5 98 3 2 15 -4 25 -14 10 -9 39 -33 64 -52 25 -19
52 -41 60 -50 16 -16 87 -71 106 -83 9 -5 12 49 13 208 l2 215 -56 0 -55 0 0
-100 c0 -109 -2 -112 -55 -63 -11 10 -56 47 -100 83 -44 35 -86 70 -93 77 -18
17 -19 17 -24 -9z"/>
<path d="M1030 920 l0 -210 53 -1 c73 -1 122 -1 195 0 l63 1 -3 48 -3 47 -85
1 c-112 2 -109 1 -103 23 4 17 14 19 76 18 l72 -2 0 45 0 45 -55 2 c-30 1 -63
2 -72 2 -15 1 -18 10 -18 49 l0 48 73 -1 c104 -2 107 0 107 51 l0 44 -150 0
-150 0 0 -210z"/>
<path d="M1014 645 c-66 -28 -93 -95 -63 -155 21 -43 55 -63 107 -63 36 0 92
26 92 43 0 4 -7 13 -16 21 -13 10 -20 10 -42 -3 -29 -17 -81 -7 -83 15 -1 7
-3 22 -4 34 -5 50 34 72 87 49 9 -4 26 -2 38 4 22 12 22 12 3 32 -28 27 -84
38 -119 23z"/>
<path d="M150 564 c0 -81 -1 -86 -20 -81 -11 3 -29 -2 -41 -12 -19 -15 -20
-18 -5 -30 9 -8 35 -14 57 -15 59 -1 69 17 69 131 l0 93 -30 0 -30 0 0 -86z"/>
<path d="M244 558 c4 -82 7 -93 27 -109 46 -35 106 -33 147 4 20 18 22 30 22
109 l0 88 -30 0 -30 0 0 -74 c0 -84 -16 -114 -51 -96 -19 11 -22 27 -22 123 0
47 0 47 -33 47 l-33 0 3 -92z"/>
<path d="M502 643 c-19 -7 -33 -50 -26 -78 4 -16 22 -32 50 -45 24 -12 46 -25
49 -30 9 -14 -18 -17 -52 -7 -24 8 -36 7 -48 -3 -14 -12 -14 -14 0 -30 37 -41
127 -34 150 11 22 42 5 76 -50 100 -45 20 -53 46 -11 35 13 -3 31 1 42 9 19
15 19 15 0 30 -19 14 -77 19 -104 8z"/>
<path d="M640 626 c0 -19 6 -25 28 -28 27 -3 27 -4 30 -84 2 -70 6 -83 21 -87
36 -9 44 8 45 90 1 62 4 78 16 79 8 1 21 2 28 3 6 0 12 12 12 26 0 25 -1 25
-90 25 -89 0 -90 0 -90 -24z"/>
<path d="M849 633 c0 -20 0 -195 1 -204 0 -3 14 -4 30 -1 l30 4 0 109 0 109
-30 0 c-22 0 -30 -5 -31 -17z"/>
<path d="M1179 648 c-6 -12 -4 -196 2 -208 6 -12 23 -15 76 -14 37 2 71 3 76
3 4 1 7 12 7 26 0 23 -3 25 -50 25 -27 0 -50 5 -50 10 0 6 18 10 40 10 36 0
40 3 40 25 0 22 -4 25 -39 25 -30 0 -40 4 -44 20 -7 26 5 32 50 28 29 -2 38 1
43 17 4 11 6 23 3 28 -4 6 -151 11 -154 5z"/>
<path d="M200 350 c0 -5 5 -10 11 -10 5 0 7 5 4 10 -3 6 -8 10 -11 10 -2 0 -4
-4 -4 -10z"/>
<path d="M862 330 c0 -19 2 -27 5 -17 2 9 2 25 0 35 -3 9 -5 1 -5 -18z"/>
<path d="M1100 328 c0 -21 2 -38 4 -38 9 0 12 50 5 62 -6 8 -9 -1 -9 -24z"/>
<path d="M231 334 c0 -11 3 -14 6 -6 3 7 2 16 -1 19 -3 4 -6 -2 -5 -13z"/>
<path d="M703 335 c-14 -10 -24 -11 -28 -5 -3 5 -14 10 -23 9 -12 0 -11 -3 5
-9 13 -5 21 -15 19 -22 -1 -7 -1 -10 1 -6 3 5 13 3 24 -3 21 -11 34 5 27 36
-3 14 -5 14 -25 0z m17 -21 c0 -8 -4 -12 -10 -9 -5 3 -10 10 -10 16 0 5 5 9
10 9 6 0 10 -7 10 -16z"/>
<path d="M1195 341 c-3 -5 -1 -12 5 -16 5 -3 10 1 10 9 0 18 -6 21 -15 7z"/>
<path d="M251 323 c-1 -27 16 -40 32 -24 9 9 8 11 -5 6 -12 -5 -18 0 -21 17
-4 22 -4 22 -6 1z"/>
<path d="M270 330 c0 -5 5 -10 10 -10 6 0 10 5 10 10 0 6 -4 10 -10 10 -5 0
-10 -4 -10 -10z"/>
<path d="M324 333 c4 -7 4 -18 0 -25 -5 -8 -10 -6 -16 8 -8 19 -8 19 -5 0 1
-11 8 -21 14 -24 18 -5 28 27 13 41 -10 9 -11 9 -6 0z"/>
<path d="M451 318 c0 -16 2 -18 6 -8 3 8 11 18 17 22 7 5 4 8 -6 8 -12 0 -18
-7 -17 -22z"/>
<path d="M522 320 c0 -14 2 -19 5 -12 2 6 2 18 0 25 -3 6 -5 1 -5 -13z"/>
<path d="M553 333 c9 -2 17 -10 17 -17 0 -7 6 -13 13 -13 6 0 19 -2 27 -4 9
-3 16 5 18 19 3 17 -1 22 -17 22 -12 0 -21 -5 -21 -12 0 -9 -3 -9 -12 0 -7 7
-19 11 -27 11 -12 -1 -12 -2 2 -6z m67 -19 c0 -8 -4 -12 -10 -9 -5 3 -10 10
-10 16 0 5 5 9 10 9 6 0 10 -7 10 -16z"/>
<path d="M744 325 c-7 -17 3 -35 19 -35 8 0 8 3 -1 9 -11 7 -10 9 3 15 9 3 13
10 10 16 -9 15 -25 12 -31 -5z"/>
<path d="M815 331 c-3 -7 0 -8 9 -5 10 4 16 1 16 -10 0 -10 -6 -13 -15 -10
-10 4 -15 0 -15 -10 0 -14 4 -15 21 -6 11 6 19 19 17 27 -4 20 -24 28 -33 14z"/>
<path d="M881 323 c-1 -12 4 -25 10 -29 11 -7 29 12 29 31 -1 6 -6 1 -12 -10
-12 -19 -12 -19 -19 5 -6 23 -7 23 -8 3z"/>
<path d="M930 327 c0 -9 6 -17 13 -17 8 0 7 -4 -3 -10 -9 -6 -10 -10 -3 -10
19 0 22 14 7 35 -12 16 -14 17 -14 2z"/>
<path d="M991 325 c-1 -11 -4 -31 -6 -45 l-6 -25 11 25 c6 13 9 33 7 45 -4 19
-4 19 -6 0z"/>
<path d="M1014 315 c1 -29 30 -25 34 5 2 19 1 22 -7 10 -5 -8 -7 -18 -5 -22 3
-4 1 -8 -5 -8 -5 0 -11 8 -14 18 -3 13 -4 12 -3 -3z"/>
<path d="M1060 327 c0 -9 6 -17 13 -17 8 0 7 -4 -3 -10 -9 -6 -10 -10 -3 -10
19 0 22 14 7 35 -12 16 -14 17 -14 2z"/>
<path d="M1143 333 c9 -2 14 -9 11 -15 -4 -7 -2 -8 5 -4 15 10 4 26 -17 25
-15 -1 -15 -2 1 -6z"/>
<path d="M88 323 c12 -2 32 -2 45 0 12 2 2 4 -23 4 -25 0 -35 -2 -22 -4z"/>
<path d="M200 310 c0 -11 2 -20 4 -20 2 0 6 9 9 20 3 11 1 20 -4 20 -5 0 -9
-9 -9 -20z"/>
<path d="M431 316 c-1 -13 -6 -16 -18 -11 -15 5 -16 4 -5 -6 15 -16 37 2 29
23 -4 8 -6 6 -6 -6z"/>
<path d="M1278 323 c12 -2 32 -2 45 0 12 2 2 4 -23 4 -25 0 -35 -2 -22 -4z"/>
<path d="M1130 305 c7 -8 17 -15 22 -15 5 0 3 7 -6 15 -8 8 -18 15 -22 15 -3
0 -1 -7 6 -15z"/>
</g>
</svg>
